{"title":"Pauline.Detective.2012.BRRip.XviD.AC3.HORiZON-ArtSubs","uid":8165228,"size":1465567527,"categoryP":"video","categoryS":"movies","magnet":"?xt=urn:btih:1feda30194c07675994c9f6322355ea64c399ed3&amp;dn=Pauline.Detective.2012.BRRip.XviD.AC3.HORiZON-ArtSubs&amp;tr=udp%3A%2F%2Ftracker.openbittorrent.com%3A80&amp;tr=udp%3A%2F%2Fopen.demonii.com%3A1337&amp;tr=udp%3A%2F%2Ftracker.coppersurfer.tk%3A6969&amp;tr=udp%3A%2F%2Fexodus.desync.com%3A6969","seeders":2,"leechers":2,"uploader":"lletaif","files":3,"time":1361319902,"description":"Title:\nPauline Detective\n\nCountry:\nFrance/2012\n\nLanguage:\nFrench\n\nSubtitle:\nFranch forced\n\nDirector:\nMarc Fitoussi\n\nWriter:\nMarc Fitoussi\n\nStars:\nSandrine Kiberlain, Audrey Lamy, Claudio Santamaria \n\nSynopsis:\nAfter being dumped by her boyfriend, Pauline lets herself be dragged along by her sister to a luxurious hotel on the Italian riviera. Instead of indulging in the pleasures of loungeing around and doing nothing, Pauline convinces herself that a crime has been commited in the hotel and starts playing at being detective, carting along a seductive lifeguard with her into her investigations.\n\nImdb: &lt;a href=&quot;\nhttp://www.imdb.com/title/tt2246909/&quot; rel=&quot;nofollow&quot; target=&quot;_NEW&quot;&gt;\nhttp://www.imdb.com/title/tt2246909/&lt;/a&gt;\n\nTrailer: &lt;a href=&quot;\nhttp://www.bandes-annonces.fr/film-2012/bande-annonce-paulinedetective.html&quot; rel=&quot;nofollow&quot; target=&quot;_NEW&quot;&gt;\nhttp://www.bandes-annonces.fr/film-2012/bande-annonce-paulinedetective.html&lt;/a&gt;\n\nMedia Info:\n\nGeneral\nComplete name:\nPauline.Detective.2012.BRRip.XviD.AC3.HORiZON-ArtSubs\nFormat                                   : AVI\nFormat/Info                              : Audio Video Interleave\nFile size                                : 1.36 GiB\nDuration                                 : 1h 37mn\nOverall bit rate                         : 2 005 Kbps\nWriting application                      : FairUse Wizard - http://fairusewizard.com\nWriting library                          : The best and REALLY easy backup tool\n\nVideo\nID                                       : 0\nFormat                                   : MPEG-4 Visual\nFormat profile                           : Advanced Simple@L5\nFormat settings, BVOP                    : 1\nFormat settings, QPel                    : No\nFormat settings, GMC                     : No warppoints\nFormat settings, Matrix                  : Default (MPEG)\nMuxing mode                              : Packed bitstream\nCodec ID                                 : XVID\nCodec ID/Hint                            : XviD\nDuration                                 : 1h 37mn\nBit rate                                 : 1 547 Kbps\nWidth                                    : 688 pixels\nHeight                                   : 368 pixels\nDisplay aspect ratio                     : 1.85:1\nFrame rate                               : 23.976 fps\nColor space                              : YUV\nChroma subsampling                       : 4:2:0\nBit depth                                : 8 bits\nScan type                                : Progressive\nCompression mode                         : Lossy\nBits/(Pixel*Frame)                       : 0.255\nStream size                              : 1.05 GiB (77%)\nWriting library                          : XviD 1.2.0.dev47 (UTC 2006-11-01)\n\nAudio\nID                                       : 1\nFormat                                   : AC-3\nFormat/Info                              : Audio Coding 3\nMode extension                           : CM (complete main)\nFormat settings, Endianness              : Big\nCodec ID                                 : 2000\nDuration                                 : 1h 37mn\nBit rate mode                            : Constant\nBit rate                                 : 448 Kbps\nChannel(s)                               : 6 channels\nChannel positions                        : Front: L C R, Side: L R, LFE\nSampling rate                            : 48.0 KHz\nBit depth                                : 16 bits\nCompression mode                         : Lossy\nStream size                              : 312 MiB (22%)\nAlignment                                : Split accross interleaves\nInterleave, duration                     : 42 ms (1.00 video frame)\nInterleave, preload duration             : 500 ms\n\n","torrent":{"xt":"urn:btih:1feda30194c07675994c9f6322355ea64c399ed3","amp;dn":"Pauline.Detective.2012.BRRip.XviD.AC3.HORiZON-ArtSubs","amp;tr":["udp%3A%2F%2Ftracker.openbittorrent.com%3A80","udp%3A%2F%2Fopen.demonii.com%3A1337","udp%3A%2F%2Ftracker.coppersurfer.tk%3A6969","udp%3A%2F%2Fexodus.desync.com%3A6969"],"infoHash":"1feda30194c07675994c9f6322355ea64c399ed3","infoHashBuffer":{"type":"Buffer","data":[31,237,163,1,148,192,118,117,153,76,159,99,34,53,94,166,76,57,158,211]},"announce":[],"urlList":[]}}